<svg width="196" height="47" viewBox="0 0 196 47" fill="none" xmlns="http://www.w3.org/2000/svg">
<path d="M20.1875 32.6875H11.9375L9.4375 45.5H4.96875L7.46875 32.6875H0V28.4062H8.28125L10.4375 17.3438H2.375V13H11.2812L13.8438 0H18.3125L15.75 13H24L26.5625 0H31.0625L28.5 13H34.875V17.3438H27.6562L25.5 28.4062H32.5312V32.6875H24.6875L22.1875 45.5H17.6875L20.1875 32.6875ZM12.75 28.4062H21L23.1562 17.3438H14.9062L12.75 28.4062Z" fill="#45A4E9"/>
<path d="M58.2413 16.34C59.7533 16.34 61.0973 16.664 62.2733 17.312C63.4733 17.96 64.4093 18.92 65.0813 20.192C65.7773 21.464 66.1253 23 66.1253 24.8V36.5H62.0573V25.412C62.0573 23.636 61.6133 22.28 60.7253 21.344C59.8373 20.384 58.6253 19.904 57.0893 19.904C55.5533 19.904 54.3293 20.384 53.4173 21.344C52.5293 22.28 52.0853 23.636 52.0853 25.412V36.5H47.9813V9.86H52.0853V18.968C52.7813 18.128 53.6573 17.48 54.7133 17.024C55.7933 16.568 56.9693 16.34 58.2413 16.34Z" fill="#45A4E9"/>
<path d="M69.9922 26.492C69.9922 24.5 70.4002 22.736 71.2162 21.2C72.0562 19.664 73.1842 18.476 74.6002 17.636C76.0402 16.772 77.6242 16.34 79.3522 16.34C80.9122 16.34 82.2682 16.652 83.4202 17.276C84.5962 17.876 85.5322 18.632 86.2282 19.544V16.664H90.3682V36.5H86.2282V33.548C85.5322 34.484 84.5842 35.264 83.3842 35.888C82.1842 36.512 80.8162 36.824 79.2802 36.824C77.5762 36.824 76.0162 36.392 74.6002 35.528C73.1842 34.64 72.0562 33.416 71.2162 31.856C70.4002 30.272 69.9922 28.484 69.9922 26.492ZM86.2282 26.564C86.2282 25.196 85.9402 24.008 85.3642 23C84.8122 21.992 84.0802 21.224 83.1682 20.696C82.2562 20.168 81.2722 19.904 80.2162 19.904C79.1602 19.904 78.1762 20.168 77.2642 20.696C76.3522 21.2 75.6082 21.956 75.0322 22.964C74.4802 23.948 74.2042 25.124 74.2042 26.492C74.2042 27.86 74.4802 29.06 75.0322 30.092C75.6082 31.124 76.3522 31.916 77.2642 32.468C78.2002 32.996 79.1842 33.26 80.2162 33.26C81.2722 33.26 82.2562 32.996 83.1682 32.468C84.0802 31.94 84.8122 31.172 85.3642 30.164C85.9402 29.132 86.2282 27.932 86.2282 26.564Z" fill="#45A4E9"/>
<path d="M102.959 36.824C101.399 36.824 99.9946 36.548 98.7466 35.996C97.5226 35.42 96.5506 34.652 95.8306 33.692C95.1106 32.708 94.7266 31.616 94.6786 30.416H98.9266C98.9986 31.256 99.3946 31.964 100.115 32.54C100.859 33.092 101.783 33.368 102.887 33.368C104.039 33.368 104.927 33.152 105.551 32.72C106.199 32.264 106.523 31.688 106.523 30.992C106.523 30.248 106.163 29.696 105.443 29.336C104.747 28.976 103.631 28.58 102.095 28.148C100.607 27.74 99.3946 27.344 98.4586 26.96C97.5226 26.576 96.7066 25.988 96.0106 25.196C95.3386 24.404 95.0026 23.36 95.0026 22.064C95.0026 21.008 95.3146 20.048 95.9386 19.184C96.5626 18.296 97.4506 17.6 98.6026 17.096C99.7786 16.592 101.123 16.34 102.635 16.34C104.891 16.34 106.703 16.916 108.071 18.068C109.463 19.196 110.207 20.744 110.303 22.712H106.199C106.127 21.824 105.767 21.116 105.119 20.588C104.471 20.06 103.595 19.796 102.491 19.796C101.411 19.796 100.583 20 100.007 20.408C99.4306 20.816 99.1426 21.356 99.1426 22.028C99.1426 22.556 99.3346 23 99.7186 23.36C100.103 23.72 100.571 24.008 101.123 24.224C101.675 24.416 102.491 24.668 103.571 24.98C105.011 25.364 106.187 25.76 107.099 26.168C108.035 26.552 108.839 27.128 109.511 27.896C110.183 28.664 110.531 29.684 110.555 30.956C110.555 32.084 110.243 33.092 109.619 33.98C108.995 34.868 108.107 35.564 106.955 36.068C105.827 36.572 104.495 36.824 102.959 36.824Z" fill="#45A4E9"/>
<path d="M125.249 16.34C126.761 16.34 128.105 16.664 129.281 17.312C130.481 17.96 131.417 18.92 132.089 20.192C132.785 21.464 133.133 23 133.133 24.8V36.5H129.065V25.412C129.065 23.636 128.621 22.28 127.733 21.344C126.845 20.384 125.633 19.904 124.097 19.904C122.561 19.904 121.337 20.384 120.425 21.344C119.537 22.28 119.093 23.636 119.093 25.412V36.5H114.989V9.86H119.093V18.968C119.789 18.128 120.665 17.48 121.721 17.024C122.801 16.568 123.977 16.34 125.249 16.34Z" fill="#45A4E9"/>
<path d="M143.156 20.012V30.992C143.156 31.736 143.324 32.276 143.66 32.612C144.02 32.924 144.62 33.08 145.46 33.08H147.98V36.5H144.74C142.892 36.5 141.476 36.068 140.492 35.204C139.508 34.34 139.016 32.936 139.016 30.992V20.012H136.676V16.664H139.016V11.732H143.156V16.664H147.98V20.012H143.156Z" fill="#45A4E9"/>
<path d="M150.395 26.492C150.395 24.5 150.803 22.736 151.619 21.2C152.459 19.664 153.587 18.476 155.003 17.636C156.443 16.772 158.027 16.34 159.755 16.34C161.315 16.34 162.671 16.652 163.823 17.276C164.999 17.876 165.935 18.632 166.631 19.544V16.664H170.771V36.5H166.631V33.548C165.935 34.484 164.987 35.264 163.787 35.888C162.587 36.512 161.219 36.824 159.683 36.824C157.979 36.824 156.419 36.392 155.003 35.528C153.587 34.64 152.459 33.416 151.619 31.856C150.803 30.272 150.395 28.484 150.395 26.492ZM166.631 26.564C166.631 25.196 166.343 24.008 165.767 23C165.215 21.992 164.483 21.224 163.571 20.696C162.659 20.168 161.675 19.904 160.619 19.904C159.563 19.904 158.579 20.168 157.667 20.696C156.755 21.2 156.011 21.956 155.435 22.964C154.883 23.948 154.607 25.124 154.607 26.492C154.607 27.86 154.883 29.06 155.435 30.092C156.011 31.124 156.755 31.916 157.667 32.468C158.603 32.996 159.587 33.26 160.619 33.26C161.675 33.26 162.659 32.996 163.571 32.468C164.483 31.94 165.215 31.172 165.767 30.164C166.343 29.132 166.631 27.932 166.631 26.564Z" fill="#45A4E9"/>
<path d="M184.153 16.34C185.689 16.34 187.045 16.652 188.221 17.276C189.421 17.876 190.357 18.632 191.029 19.544V16.664H195.169V36.824C195.169 38.648 194.785 40.268 194.017 41.684C193.249 43.124 192.133 44.252 190.669 45.068C189.229 45.884 187.501 46.292 185.485 46.292C182.797 46.292 180.565 45.656 178.789 44.384C177.013 43.136 176.005 41.432 175.765 39.272H179.833C180.145 40.304 180.805 41.132 181.813 41.756C182.845 42.404 184.069 42.728 185.485 42.728C187.141 42.728 188.473 42.224 189.481 41.216C190.513 40.208 191.029 38.744 191.029 36.824V33.512C190.333 34.448 189.385 35.24 188.185 35.888C187.009 36.512 185.665 36.824 184.153 36.824C182.425 36.824 180.841 36.392 179.401 35.528C177.985 34.64 176.857 33.416 176.017 31.856C175.201 30.272 174.793 28.484 174.793 26.492C174.793 24.5 175.201 22.736 176.017 21.2C176.857 19.664 177.985 18.476 179.401 17.636C180.841 16.772 182.425 16.34 184.153 16.34ZM191.029 26.564C191.029 25.196 190.741 24.008 190.165 23C189.613 21.992 188.881 21.224 187.969 20.696C187.057 20.168 186.073 19.904 185.017 19.904C183.961 19.904 182.977 20.168 182.065 20.696C181.153 21.2 180.409 21.956 179.833 22.964C179.281 23.948 179.005 25.124 179.005 26.492C179.005 27.86 179.281 29.06 179.833 30.092C180.409 31.124 181.153 31.916 182.065 32.468C183.001 32.996 183.985 33.26 185.017 33.26C186.073 33.26 187.057 32.996 187.969 32.468C188.881 31.94 189.613 31.172 190.165 30.164C190.741 29.132 191.029 27.932 191.029 26.564Z" fill="#45A4E9"/>
</svg>
